<?xml version="1.0" encoding="utf-8"?>
<!-- Generator: Adobe Illustrator 18.0.0, SVG Export Plug-In . SVG Version: 6.00 Build 0)  -->
<!DOCTYPE svg PUBLIC "-//W3C//DTD SVG 1.1 Basic//EN" "http://www.w3.org/Graphics/SVG/1.1/DTD/svg11-basic.dtd" [
	<!ENTITY ns_flows "http://ns.adobe.com/Flows/1.0/">
	<!ENTITY ns_extend "http://ns.adobe.com/Extensibility/1.0/">
	<!ENTITY ns_ai "http://ns.adobe.com/AdobeIllustrator/10.0/">
	<!ENTITY ns_graphs "http://ns.adobe.com/Graphs/1.0/">
]>
<svg version="1.1" baseProfile="basic" id="Layer_1" xmlns:x="&ns_extend;" xmlns:i="&ns_ai;" xmlns:graph="&ns_graphs;"
	 xmlns="http://www.w3.org/2000/svg" xmlns:xlink="http://www.w3.org/1999/xlink" xmlns:a="http://ns.adobe.com/AdobeSVGViewerExtensions/3.0/"
	 x="0px" y="0px" viewBox="0 0 528 464" xml:space="preserve">
<g>
	<path fill="#5abad8" d="M351.1,310.2H223l15-15c7.7-7.7,7.7-20.1,0-27.8l0,0c-7.7-7.7-20.1-7.7-27.8,0l-45.8,45.8
		c-13.4,13.4-3.9,36.3,15,36.3h171.9c10.9,0,19.7-8.8,19.7-19.7v0C370.8,319,362,310.2,351.1,310.2z"/>
	<path fill="#49c086" d="M492.7,300.9c-0.2-47.7-38.9-86.7-86.7-86.7h-11.3c-10.9,0-19.7,8.8-19.7,19.7v0c0,10.9,8.8,19.7,19.7,19.7
		H406c26.2,0,47.4,21.2,47.4,47.4v18.1v17.6c0,28.2-22.8,51-51,51h-272c-30.4,0-55-24.6-55-55v-19.7c0-10.9-8.8-19.7-19.7-19.7h0
		c-10.9,0-19.7,8.8-19.7,19.7v19.7c0,52.1,42.2,94.3,94.3,94.3h272h0c49.9,0,90.3-40.4,90.3-90.3v-17.6L492.7,300.9L492.7,300.9z"/>
</g>
<g>
	<path fill="#5abad8" d="M36.1,167.1c0.2,47.7,38.9,86.7,86.7,86.7h11.3c10.9,0,19.7-8.8,19.7-19.7v0c0-10.9-8.8-19.7-19.7-19.7
		h-11.3c-26.2,0-47.4-21.2-47.4-47.4v-35.6c0-28.2,22.8-51,51-51h272c30.4,0,55,24.6,55,55v19.7c0,10.9,8.8,19.7,19.7,19.7h0
		c10.9,0,19.7-8.8,19.7-19.7v-19.7c0-52.1-42.2-94.3-94.3-94.3h-272h0c-49.9,0-90.3,40.4-90.3,90.3L36.1,167.1L36.1,167.1z"/>
	<path fill="#49c086" d="M177.7,172h128.2l-15,15c-7.7,7.7-7.7,20.1,0,27.8l0,0c7.7,7.7,20.1,7.7,27.8,0l45.8-45.8
		c13.4-13.4,3.9-36.3-15-36.3H177.7c-10.9,0-19.7,8.8-19.7,19.7v0C158,163.2,166.8,172,177.7,172z"/>
</g>
</svg>
